<?xml version="1.0" encoding="UTF-8"?>
<!-- Generated by Pixelmator Pro 3.6.14 -->
<svg width="500" height="500" viewBox="0 0 500 500" xmlns="http://www.w3.org/2000/svg">
    <path id="Ellipse" fill="#292524" fill-rule="evenodd" stroke="#292524" stroke-width="19" stroke-linecap="round" stroke-linejoin="round" d="M 451 250 C 451 139.54306 360.78537 50 249.5 50 C 138.21463 50 48 139.54306 48 250 C 48 360.45694 138.21463 450 249.5 450 C 360.78537 450 451 360.45694 451 250 Z"/>
    <path id="path1" fill="#292524" fill-rule="evenodd" stroke="#819eb5" stroke-width="19" stroke-linecap="round" stroke-linejoin="round" d="M 293 319 C 293 298.013184 274.4198 281 251.5 281 C 228.580185 281 210 298.013184 210 319 C 210 339.986816 228.580185 357 251.5 357 C 274.4198 357 293 339.986816 293 319 Z"/>
    <path id="Rounded-Rectangle" fill="#292524" fill-rule="evenodd" stroke="none" d="M 179 318 C 179 331.807129 190.192886 343 204 343 L 299 343 C 312.807129 343 324 331.807129 324 318 C 324 304.192871 312.807129 293 299 293 L 204 293 C 190.192886 293 179 304.192871 179 318 Z"/>
    <path id="Shape" fill="#292524" fill-rule="evenodd" stroke="#819eb5" stroke-width="19" stroke-linecap="round" stroke-linejoin="round" d="M 154 318 L 197.380859 273.263672 C 182.975418 259.605804 174 240.343506 174 219 C 174 177.578674 207.802551 144 249.5 144 C 291.197479 144 325 177.578674 325 219 C 325 240.086212 316.238647 259.139465 302.136719 272.765625 L 346 318 L 154 318 Z"/>
    <path id="Circle" fill="#819eb5" fill-rule="evenodd" stroke="none" d="M 262 132 C 262 125.372589 256.627411 120 250 120 C 243.372589 120 238 125.372589 238 132 C 238 138.627411 243.372589 144 250 144 C 256.627411 144 262 138.627411 262 132 Z"/>
</svg>
