<?xml version="1.0" encoding="UTF-8"?>
<!-- Generated by Pixelmator Pro 3.6.14 -->
<svg width="500" height="500" viewBox="0 0 500 500" xmlns="http://www.w3.org/2000/svg">
    <path id="Ellipse-copy" fill="#292524" fill-rule="evenodd" stroke="#292524" stroke-width="19" stroke-linecap="round" stroke-linejoin="round" d="M 451 250 C 451 139.54306 360.78537 50 249.5 50 C 167.148819 50 96.335991 99.033783 65.080254 169.291138 C 54.098511 193.976166 48 221.281189 48 250 C 48 257.731995 48.442051 265.361511 49.302437 272.86499 C 60.733295 372.554199 146.004608 450 249.5 450 C 360.78537 450 451 360.45694 451 250 Z"/>
    <path id="Gear" fill="#292524" fill-rule="evenodd" stroke="#829eb5" stroke-width="18" stroke-linecap="round" stroke-linejoin="round" d="M 369 274.352966 C 361.300049 276.165955 350.569946 278.691956 342.01001 280.704956 C 340.56189 285.036987 338.810913 289.261719 336.77002 293.347961 C 341.400024 300.822998 347.199951 310.198975 351.369995 316.928955 C 354.550049 322.070984 355.050049 327.380005 348.98999 333.440979 L 333.439941 348.994995 C 327.380005 355.055969 322.069946 354.550964 316.930054 351.367981 C 310.199951 347.201965 300.819946 341.397949 293.349976 336.768005 C 289.262573 338.811096 285.035278 340.561462 280.699951 342.005981 C 278.689941 350.562988 276.170044 361.295959 274.349976 369 C 272.969971 374.886963 269.569946 379 261 379 L 239 379 C 230.430054 379 227.030029 374.888977 225.650024 369 C 223.829956 361.299988 221.310059 350.562988 219.300049 342.005981 C 214.964722 340.561462 210.737427 338.811096 206.650024 336.768005 C 199.180054 341.394958 189.800049 347.198975 183.069946 351.367981 C 177.930054 354.550964 172.619995 355.055969 166.560059 348.994995 L 151.01001 333.440979 C 144.949951 327.380005 145.449951 322.070984 148.630005 316.928955 C 152.800049 310.198975 158.599976 300.822998 163.22998 293.347961 C 161.189087 289.261719 159.43811 285.036987 157.98999 280.704956 C 149.430054 278.691956 138.700012 276.165955 131 274.352966 C 125.109985 272.967957 121 269.570984 121 261 L 121 239.000977 C 121 230.429993 125.109985 227.032959 131 225.647949 C 138.700012 223.834961 149.430054 221.30896 157.98999 219.295959 C 159.43811 214.963989 161.189087 210.739258 163.22998 206.652954 C 158.599976 199.177979 152.800049 189.802002 148.630005 183.07196 C 145.449951 177.929993 144.949951 172.620972 151.01001 166.559998 L 166.560059 151.005981 C 172.619995 144.944946 177.930054 145.449951 183.069946 148.632996 C 189.800049 152.79895 199.180054 158.602966 206.650024 163.232971 C 210.737427 161.18988 214.964722 159.439453 219.300049 157.994995 C 221.310059 149.437988 223.829956 138.704956 225.650024 131.000977 C 227.030029 125.113953 230.430054 121.000977 239 121.000977 L 261 121.000977 C 269.569946 121.000977 272.969971 125.112 274.349976 131.000977 C 276.170044 138.700989 278.689941 149.437988 280.699951 157.994995 C 285.035278 159.439453 289.262573 161.18988 293.349976 163.232971 C 300.819946 158.605957 310.199951 152.802002 316.930054 148.632996 C 322.069946 145.449951 327.380005 144.944946 333.439941 151.005981 L 348.98999 166.559998 C 355.050049 172.620972 354.550049 177.929993 351.369995 183.07196 C 347.199951 189.802002 341.400024 199.177979 336.77002 206.652954 C 338.810913 210.739258 340.56189 214.963989 342.01001 219.295959 C 350.569946 221.30896 361.300049 223.834961 369 225.647949 C 374.890015 227.032959 379 230.429993 379 239.000977 L 379 261.000977 C 379 269.570984 374.890015 272.967957 369 274.352966 Z M 250 200.000977 C 222.385742 200.000977 200 222.386719 200 250.000977 C 200 277.615234 222.385742 300.000977 250 300.000977 C 277.614258 300.000977 300 277.615234 300 250.000977 C 300 222.386719 277.614258 200.000977 250 200.000977 Z"/>
</svg>
